<svg width="37" height="38" viewBox="0 0 37 38" fill="none" xmlns="http://www.w3.org/2000/svg">
<path d="M11.1837 31.7715L14.6355 25.793H21.5389L24.9907 31.7715L21.5389 37.7501H14.6355L11.1837 31.7715Z" fill="#17A700"/>
<path d="M22.2294 25.4202L25.6811 19.4417H32.5846L36.0363 25.4202L32.5846 31.3988H25.6811L22.2294 25.4202Z" fill="#17A700"/>
<path d="M22.2294 12.7178L25.6811 6.73926H32.5846L36.0363 12.7178L32.5846 18.6964H25.6811L22.2294 12.7178Z" fill="#17A700"/>
<path d="M11.1837 6.22858L14.6355 0.25H21.5389L24.9907 6.22858L21.5389 12.2072H14.6355L11.1837 6.22858Z" fill="#17A700"/>
<path d="M6.10352e-05 12.8558L3.4518 6.8772H10.3553L13.807 12.8558L10.3553 18.8344H3.4518L6.10352e-05 12.8558Z" fill="#17A700"/>
<path d="M0.138306 25.6964L3.59004 19.7178H10.4935L13.9452 25.6964L10.4935 31.6749H3.59004L0.138306 25.6964Z" fill="#17A700"/>
<path d="M11.1837 19.0689L14.6355 13.0903H21.5389L24.9907 19.0689L21.5389 25.0475H14.6355L11.1837 19.0689Z" fill="#17A700"/>
</svg>
